/* XPM */
static char *freeimage[] = {
/* width height num_colors chars_per_pixel */
"64 64 66 1",
/* colors */
"  c #ffffff",
". c #c5605b",
"X c #e84239",
"o c #f7362c",
"O c #f62e24",
"+ c #f82e25",
"@ c #f83026",
"# c #c5625e",
"$ c #d6504a",
"% c #f73026",
"& c #d84e48",
"* c #bb7b78",
"= c #e93d34",
"- c #f73d34",
"; c #b97572",
": c #b98a88",
"> c #b88482",
", c #d84d46",
"< c #f23129",
"1 c #be726e",
"2 c #bb6d6a",
"3 c #f6524a",
"4 c #f29994",
"5 c #f1bdbb",
"6 c #f1c5c3",
"7 c #f1c1be",
"8 c #f1a29e",
"9 c #f64940",
"0 c #f38e89",
"q c #f9f9f9",
"w c #f1e4e3",
"e c #d24a43",
"r c #f5615a",
"t c #f4706a",
"y c #f2b4b1",
"u c #f46760",
"i c #ec352c",
"p c #f2eeee",
"a c #f1dad8",
"s c #f64e45",
"d c #f1d2d1",
"f c #f47a74",
"g c #f47871",
"h c #d64f48",
"j c #f3908b",
"k c #f55951",
"l c #c45d58",
"z c #e84037",
"x c #e63c33",
"c c #f29d99",
"v c #f7382e",
"b c #f2a9a6",
"n c #f6483f",
"m c #f1b1ae",
"M c #f38580",
"N c #f1cac9",
"B c #f38a85",
"V c #f2b9b6",
"C c #f1d8d6",
"Z c #f3837d",
"A c #f46a63",
"S c #b78481",
"D c #f37e79",
"F c #bd6b67",
"G c #d74740",
"H c #c35c57",
/* pixels */
"                                                                ",
"                                                                ",
"                                                                ",
"                                                                ",
"                         .XoO+OO+O++@X#                         ",
"                      $%OOOOOOO+O+++++++@&                      ",
"                   *=+OO+O+++++++++++++@+++-;                   ",
"                 :=+++OO+O++++++++++++@@@++++=>                 ",
"                &OOOOO++++++++++++++++++++++++O,                ",
"               <@O++++++++++++++++++++++++++++OO<               ",
"             1+OO+O++++++++++++++++++++++++++++OOO2             ",
"            .%OO++++++++++++++++++++++++++++++++OOO.            ",
"           .%OOO+++++++++++++++++++++++++++++++++OOO.           ",
"          1OO+O+++++++++++++++++++++++++++++++++++O+O2          ",
"          +OOO++++++++++%@++++++++++++++++++++++++O+++          ",
"         <%O+++++++++++O3456666666666666666789+++++OOO<         ",
"        ,O++++++++++++O0qqqqqqqqqqqqqqqqqqqqqw-+++++OO+e        ",
"       >+OO+++++++++++rqqqqqqqqqqqqqqqqqqqqqqqt+++++++OO>       ",
"       =++++++++++++++yqqqqqqqqqqqqqqqqqqqqqqqu+++++++OOi       ",
"      ;++O+++++++++++%pqqqqqqqqqqqqqqqqqqqqqqa<@+++++++OO;      ",
"      =++++++++++++++sqqqqqqqqqqqqqqqqqqqqqqd3%++++++++OOi      ",
"      +OO+++++++++++@tqqqqqqq8fftffgfgfgfgtr%++++++++++O++      ",
"     hO++++++++++++++jqqqqqqqk@++++++++++++++++++++++++O+Oe     ",
"     %+@++++++++++++@yqqqqqqq<@@+++++++++++++++++++++++++OO     ",
"     O@@+++++++++++@@dqqqqqqa@++++++++++++++++++++++++++O+O     ",
"    .O++++++++++++++<qqqqqqqy@++++++++++++++++++++++++++++Ol    ",
"    z+O+++++++++++++kqqqqqqqjO+++++++++++++++++++++++++++OOx    ",
"    @OO+++++++++++++fqqqqqqqtO%OOO%OOO@+++++++++++++++++O++O    ",
"    O+O+++++++++++++cqqqqqqqk-<-v-<-v-<<+@+++++++++++++++OOO    ",
"    +OO+++++++++++++7qqqqqqqqqqqqqqqqqqpb<@+++++++++++++++OO    ",
"    OO+++++++++++++Oaqqqqqqqqqqqqqqqqqqqq0+++++++++++++++++O    ",
"    OO+++++++++++++nqqqqqqqqqqqqqqqqqqqqqm+++++++++++++++O++    ",
"    +O+++++++++++++rqqqqqqqqqqqqqqqqqqqqq0+++++++++++++++OOO    ",
"    OOO++++++++++++Mqqqqqqqqqqqqqqqqqqqqan+++++++++++++++OOO    ",
"    +OO++++++++++++bqqqqqqqwwwwwwwwwwwabn+++++++++++++++++O+    ",
"    OO+++++++++++++Nqqqqqqw++@@++++O%OO++++++++++++++++++OOO    ",
"    OOO+++++++++++%pqqqqqq7@s4B%+++Of83O++++++++++++++++++OO    ",
"    =OO+++++++++++sqqqqqqq8+NqqB++O8qqVO+++++++++++++++++O+x    ",
"    l+OO++++++++++tqqqqqqqf@Cqqp-O0qqqBO++++++++++++++++@+Ol    ",
"     OO+++++++++++jqqqqqqqk@Zqqqcfqqqm@+++++++++++++++++@@+     ",
"     ++O+++++++++@yqqqqqqq<@<dqqqqqq5<@++++++++++++++++++OO     ",
"     e++++++++++@@dqqqqqqa+++AqqqqqNv++++++++++++++++++++Oe     ",
"      ++O++++++++<qqqqqqqV+++OCqqqpn+++++++++++++++++++OOO      ",
"      i+O++++++++kqqqqqqqj@OO4qqqqqr%@++++++++++++++++O++i      ",
"      ;++O+++++++fqqqqqqqt+OfqqqqqqN%@+++++++++++++++++OO;      ",
"       i++O++++++4qqqqqqqs@Aqqq7bqqqA%+++++++++++++++OOOi       ",
"       >+++++++++bqqqqqqw+3pqqd-npqqd%O+++++++++++++++++S       ",
"        e++OO++++4qqqqqqj@dqqwn++8qqq3%+++++++++++++OOOe        ",
"         <+++++++3pqqqq6o<wqw3@++nwqwn+++++++++++++OOO<         ",
"          +OOOO+++r6wd0<@+sDn+++++sDs+++++++++++++O+OO          ",
"          2+OO+++++++++++++++++++++++++++++++++++OOOO2          ",
"           lOOO+++++++++++++++++++++++++++++++++OO+Ol           ",
"            lO+O++++++++++++++++++++++++++++++++OOOl            ",
"             FOO+O+++++++++++++++++++++++++++++O+O2             ",
"               <O+O+O++++++++++++++++++++++O+O++<               ",
"                GO++OO++++++++++++++++++O+OOO+Oe                ",
"                 >iOOOO+@@++O+++++++++++OOO+OiS                 ",
"                   ;iO++++OO++O+O+OO+OOOOOOi;                   ",
"                      eOO+OOOOOOOOO+OOO+Oe                      ",
"                         lxOO+OO+O+OOxH                         ",
"                                                                ",
"                                                                ",
"                                                                ",
"                                                                "
};
