/* XPM */
static char *freeimage[] = {
/* width height num_colors chars_per_pixel */
"16 16 34 1",
/* colors */
"  c #ffffff",
". c #c06864",
"X c #eb3830",
"o c #f72e25",
"O c #ea372e",
"+ c #bf6864",
"@ c #ba8684",
"# c #f53026",
"$ c #f82e25",
"% c #f64940",
"& c #f7564e",
"* c #f74e46",
"= c #f7372e",
"- c #f6716a",
"; c #f69995",
": c #f8a9a5",
"> c #f73d34",
", c #f9cac8",
"< c #fbf1f1",
"1 c #f9c9c7",
"2 c #f65e56",
"3 c #fbedec",
"4 c #f9c4c1",
"5 c #f5c1be",
"6 c #f66c65",
"7 c #f8ada9",
"8 c #f66f68",
"9 c #f7908b",
"0 c #f68782",
"q c #f7a7a3",
"w c #f8e0df",
"e c #f6c6c3",
"r c #f7d4d2",
"t c #f67a74",
/* pixels */
"                ",
"     .XooO+     ",
"   @#ooooooo@   ",
"  @o$o%&*&&=o@  ",
"  #$$-     ;$#  ",
" .$$$: ;--->$o. ",
" X$$$, *o$$$$$O ",
" o$$o< ,,12$$$o ",
" o$$* 3445*$$$o ",
" O$$6 7589#$$$O ",
" .o$9 0qw=$$$$. ",
"  #o7 0er*$$$#  ",
"  @o&t*>*>$$o@  ",
"   @#o$$$$o#@   ",
"     .OooO+     ",
"                "
};
