/* XPM */
static char *freeimage[] = {
/* width height num_colors chars_per_pixel */
"32 32 48 1",
/* colors */
"  c #ffffff",
". c #b98582",
"X c #d0524b",
"o c #f23129",
"O c #f83026",
"+ c #f72e24",
"@ c #ce514a",
"# c #c06964",
"$ c #f82e25",
"% c #f53026",
"& c #ed342b",
"* c #ba7470",
"= c #f6574f",
"- c #f5746e",
"; c #f47771",
": c #f4827c",
"> c #fefefe",
", c #f7f2f1",
"< c #f6433a",
"1 c #f6e2e1",
"2 c #f73e35",
"3 c #c06662",
"4 c #f6e0de",
"5 c #f5b7b3",
"6 c #f5afac",
"7 c #f5625a",
"8 c #f56c65",
"9 c #f49e9a",
"0 c #f48a85",
"q c #ce4e49",
"w c #f5d3d1",
"e c #f49792",
"r c #f48f8a",
"t c #f8f6f6",
"y c #f5cecc",
"u c #f4aaa6",
"i c #f3bbb8",
"p c #f57872",
"a c #f64941",
"s c #f4c4c1",
"d c #f55c55",
"f c #d04e48",
"g c #f5bbb8",
"h c #f6ecec",
"j c #f4a09c",
"k c #f5d8d6",
"l c #bf6662",
"z c #bb736f",
/* pixels */
"                                ",
"                                ",
"           .XoO+++o@.           ",
"         #o$++++++$O$%#         ",
"        &++$$$$$$$$$$$+&        ",
"      *O++$$$$$$$$$$$$+++*      ",
"     *O+$$$++++++++++$$$++*     ",
"     $+$$$$+=--;;;;;;;=$$++     ",
"    &%$$$$+:>>>>>>>>>>,<$$+&    ",
"   #+$$$$$+1>>>>>>>>>>,2$$$+3   ",
"   %+$$$$$<>>>455555567$$$$+%   ",
"  .$$$$$$$8>>>9+$$$$$$$$$$$++.  ",
"  @$$$$$$$0>>>;+$$$$$$$$$$$$+q  ",
"  o%$$$$$$6>>>=+$$O$$$$$$$$$+o  ",
"  ++$$$$$$w>>>9eeeer=$$$$$$$++  ",
"  +$$$$$$ot>>>>>>>>>y$$$$$$$++  ",
"  ++$$$$$=t>>>>>>>>>u$$$$$$$++  ",
"  $+$$$$$->>>i00000poO$$$$$$++  ",
"  o$$$$$$e>>>8urOasd$$$$$$$$$o  ",
"  f+$$$$$g>>>aw,741a$$$$$$$$O@  ",
"  .+$$$$$4>>,%8>,h=$$$$$$$$$$.  ",
"   %+$$$2,>>y$a,>j$$$$$$$$$+%   ",
"   3++$$d>>>u2kh1h2$$$$$$$++l   ",
"    &++O8>>>-s,7:>r$$$$$$$+&    ",
"     +++oshj%u8$ou8$$$$$$++     ",
"     z++$$$$$$$$$$$$$$$$++z     ",
"      z++$$$$$$$$$$$$$$++*      ",
"        &++$$$$$$$$$+++&        ",
"         l%$O++++++++%l         ",
"           .qo++++oq.           ",
"                                ",
"                                "
};
